<?xml version="1.0" encoding="utf-8"?>
<!-- Generator: Adobe Illustrator 22.0.0, SVG Export Plug-In . SVG Version: 6.00 Build 0)  -->
<svg version="1.1" id="Capa_1" xmlns="http://www.w3.org/2000/svg" xmlns:xlink="http://www.w3.org/1999/xlink" x="0px" y="0px"
	 viewBox="0 0 80 105" style="enable-background:new 0 0 80 105;" xml:space="preserve">
<style type="text/css">
	.st0{opacity:0.56;fill:#FFFFFF;}
	.st1{fill:#A9A5A9;}
	.st2{clip-path:url(#SVGID_2_);fill:#A9A5A9;}
</style>
<path class="st0" d="M66.9,105H13.1c-5.2,0-9.4-4.2-9.4-9.4V9.4C3.8,4.2,7.9,0,13.1,0h53.8c5.2,0,9.4,4.2,9.4,9.4v86.3
	C76.3,100.8,72.1,105,66.9,105z"/>
<polygon class="st1" points="8.7,98.2 6.2,98.2 6.2,9.1 8.7,9.1 8.7,50.6 71.1,50.6 71.1,9.1 73.6,9.1 73.6,98.2 71.1,98.2 
	71.1,53.1 8.7,53.1 "/>
<rect x="10.3" y="9.3" class="st1" width="29" height="2.7"/>
<rect x="40.9" y="54.8" class="st1" width="2.7" height="43.4"/>
<rect x="10.3" y="27.6" class="st1" width="29" height="2.7"/>
<rect x="54" y="13.6" class="st1" width="2.7" height="30.7"/>
<rect x="44.9" y="75.2" class="st1" width="25" height="2.7"/>
<rect x="10.3" y="45.9" class="st1" width="29" height="2.7"/>
<rect x="40.9" y="9.3" class="st1" width="29" height="2.7"/>
<rect x="40.9" y="45.9" class="st1" width="29" height="2.7"/>
<g>
	<defs>
		<rect id="SVGID_1_" x="-22.3" y="6.2" width="123.4" height="95.4"/>
	</defs>
	<clipPath id="SVGID_2_">
		<use xlink:href="#SVGID_1_"  style="overflow:visible;"/>
	</clipPath>
	<path class="st2" d="M39.3,94.4c-2.3,1-4.9,1.6-7.5,1.6c-10.6,0-19.1-8.7-19.1-19.4c0-10.7,8.6-19.4,19.1-19.4
		c2.7,0,5.2,0.6,7.5,1.6v-2.5c-2.3-0.9-4.9-1.4-7.5-1.4c-11.8,0-21.4,9.7-21.4,21.7c0,12,9.6,21.7,21.4,21.7c2.7,0,5.2-0.5,7.5-1.4
		V94.4z"/>
</g>
</svg>
