<?xml version="1.0" encoding="utf-8"?>
<!-- Generator: Adobe Illustrator 22.0.0, SVG Export Plug-In . SVG Version: 6.00 Build 0)  -->
<svg version="1.1" id="Capa_1" xmlns="http://www.w3.org/2000/svg" xmlns:xlink="http://www.w3.org/1999/xlink" x="0px" y="0px"
	 viewBox="0 0 80 105" style="enable-background:new 0 0 80 105;" xml:space="preserve">
<style type="text/css">
	.st0{opacity:0.56;fill:#FFFFFF;}
	.st1{font-family:'HelveticaNeue-Light';}
	.st2{font-size:14.2835px;}
	.st3{fill:#F9C330;}
	.st4{clip-path:url(#SVGID_2_);}
</style>
<path class="st0" d="M66.9,105H13.1c-5.2,0-9.4-4.2-9.4-9.4V9.4C3.8,4.2,7.9,0,13.1,0h53.8c5.2,0,9.4,4.2,9.4,9.4v86.3
	C76.3,100.8,72.1,105,66.9,105z"/>
<text transform="matrix(1 0 0 1 9.937 100.1436)" class="st1 st2">Fotografía</text>
<polygon class="st3" points="12.2,86 9.9,86 9.9,4.9 12.2,4.9 12.2,42.6 69.1,42.6 69.1,4.9 71.3,4.9 71.3,86 69.1,86 69.1,44.9 
	12.2,44.9 "/>
<rect x="13.6" y="5" width="26.5" height="2.5"/>
<rect x="41.5" y="46.5" width="2.5" height="39.6"/>
<rect x="13.6" y="21.7" width="26.5" height="2.5"/>
<rect x="53.5" y="8.9" width="2.5" height="27.9"/>
<rect x="45.2" y="65" width="22.8" height="2.5"/>
<rect x="13.6" y="38.3" width="26.5" height="2.5"/>
<rect x="41.5" y="5" width="26.5" height="2.5"/>
<rect x="41.5" y="38.3" width="26.5" height="2.5"/>
<g>
	<defs>
		<polyline id="SVGID_1_" points="-32.7,-3.7 112.7,-3.7 112.7,108.7 -32.7,108.7 		"/>
	</defs>
	<clipPath id="SVGID_2_">
		<use xlink:href="#SVGID_1_"  style="overflow:visible;"/>
	</clipPath>
	<path class="st4" d="M40.1,82.5c-2.1,0.9-4.4,1.4-6.9,1.4c-9.6,0-17.4-7.9-17.4-17.7c0-9.8,7.8-17.7,17.4-17.7
		c2.4,0,4.8,0.5,6.9,1.4v-2.3c-2.1-0.8-4.5-1.3-6.9-1.3c-10.8,0-19.5,8.9-19.5,19.8c0,10.9,8.8,19.8,19.5,19.8
		c2.4,0,4.7-0.5,6.9-1.3V82.5z"/>
</g>
</svg>
